HIERARCHY
ROOT Hips
{
	OFFSET 0.000000 97.420761 0.000000
	CHANNELS 6 Xposition Yposition Zposition Xrotation Yrotation Zrotation
	JOINT RightUpLeg
	{
		OFFSET -8.571318 0.002251 -0.000250
		CHANNELS 6 Xposition Yposition Zposition Xrotation Yrotation Zrotation
		JOINT RightLeg
		{
			OFFSET 0.000000 -44.326080 -0.000105
			CHANNELS 6 Xposition Yposition Zposition Xrotation Yrotation Zrotation
			JOINT RightFoot
			{
				OFFSET 0.000000 -43.324329 -0.000176
				CHANNELS 6 Xposition Yposition Zposition Xrotation Yrotation Zrotation
				JOINT RightToeBase
				{
					OFFSET 0.000000 -7.938133 18.050686
					CHANNELS 6 Xposition Yposition Zposition Xrotation Yrotation Zrotation
					End Site
					{
						OFFSET 0.000000 0.000000 19.719055
					}
				}
			}
		}
	}
	JOINT LeftUpLeg
	{
		OFFSET 8.571318 -0.000084 0.000009
		CHANNELS 6 Xposition Yposition Zposition Xrotation Yrotation Zrotation
		JOINT LeftLeg
		{
			OFFSET 0.000000 -44.326080 -0.000105
			CHANNELS 6 Xposition Yposition Zposition Xrotation Yrotation Zrotation
			JOINT LeftFoot
			{
				OFFSET 0.000000 -43.324329 -0.000176
				CHANNELS 6 Xposition Yposition Zposition Xrotation Yrotation Zrotation
				JOINT LeftToeBase
				{
					OFFSET 0.000000 -7.938133 18.050686
					CHANNELS 6 Xposition Yposition Zposition Xrotation Yrotation Zrotation
					End Site
					{
						OFFSET 0.000000 0.000000 19.719055
					}
				}
			}
		}
	}
	JOINT Spine
	{
		OFFSET 0.000000 10.422829 -1.158092
		CHANNELS 6 Xposition Yposition Zposition Xrotation Yrotation Zrotation
		JOINT Spine1
		{
			OFFSET 0.000000 11.587624 0.000000
			CHANNELS 3 Xrotation Yrotation Zrotation
			JOINT Spine2
			{
				OFFSET 0.000000 10.579559 -0.000443
				CHANNELS 6 Xposition Yposition Zposition Xrotation Yrotation Zrotation
				JOINT Spine3
				{
					OFFSET 0.000000 10.567749 -0.000444
					CHANNELS 6 Xposition Yposition Zposition Xrotation Yrotation Zrotation
					JOINT LeftShoulder
					{
						OFFSET 3.218383 8.290512 0.000000
						CHANNELS 6 Xposition Yposition Zposition Xrotation Yrotation Zrotation
						JOINT LeftArm
						{
							OFFSET 15.038529 0.000000 0.000000
							CHANNELS 3 Xrotation Yrotation Zrotation
							JOINT LeftForeArm
							{
								OFFSET 32.129166 0.000000 0.000000
								CHANNELS 3 Xrotation Yrotation Zrotation
								JOINT LeftHand
								{
									OFFSET 26.275406 0.000000 0.000000
									CHANNELS 3 Xrotation Yrotation Zrotation
									End Site
									{
										OFFSET 26.275406 0.000000 0.000000
									}
								}
							}
						}
					}
					JOINT RightShoulder
					{
						OFFSET -3.218383 8.290512 0.000000
						CHANNELS 6 Xposition Yposition Zposition Xrotation Yrotation Zrotation
						JOINT RightArm
						{
							OFFSET -15.038529 0.000000 0.000000
							CHANNELS 3 Xrotation Yrotation Zrotation
							JOINT RightForeArm
							{
								OFFSET -32.129166 0.000000 0.000000
								CHANNELS 3 Xrotation Yrotation Zrotation
								JOINT RightHand
								{
									OFFSET -26.275406 0.000000 0.000000
									CHANNELS 3 Xrotation Yrotation Zrotation
									End Site
									{
										OFFSET -26.275406 0.000000 0.000000
									}
								}
							}
						}
					}
					JOINT Neck
					{
						OFFSET 0.000000 14.789474 0.000000
						CHANNELS 6 Xposition Yposition Zposition Xrotation Yrotation Zrotation
						JOINT Head
						{
							OFFSET 0.000000 9.838806 0.000953
							CHANNELS 6 Xposition Yposition Zposition Xrotation Yrotation Zrotation
							End Site
							{
								OFFSET 0.000000 9.838806 0.000000
							}
						}
					}
				}
			}
		}
	}
}
MOTION
Frames: 8
Frame Time: 0.016667
0.000000 97.420761 0.000000 -0.000000 0.000000 -0.000000 -8.571318 0.002251 -0.000250 -0.000000 0.000000 -0.000000 0.000000 -44.326080 -0.000105 -0.000000 0.000000 -0.000000 0.000000 -43.324329 -0.000176 -0.000000 0.000000 -0.000000 0.000000 -7.938133 18.050686 -0.000000 0.000000 -0.000000 8.571318 -0.000084 0.000009 -0.000000 0.000000 -0.000000 0.000000 -44.326080 -0.000105 -0.000000 0.000000 -0.000000 0.000000 -43.324329 -0.000176 -0.000000 0.000000 -0.000000 0.000000 -7.938133 18.050686 -0.000000 0.000000 -0.000000 0.000000 10.422829 -1.158092 -0.000000 0.000000 -0.000000 -0.000000 0.000000 -0.000000 0.000000 10.579559 -0.000443 -0.000000 0.000000 -0.000000 0.000000 10.567749 -0.000444 -0.000000 0.000000 -0.000000 3.218383 8.290512 0.000000 -0.000000 0.000000 -0.000000 -0.000000 0.000000 -0.000000 -0.000000 0.000000 -0.000000 -0.000000 0.000000 -0.000000 -3.218383 8.290512 0.000000 -0.000000 0.000000 -0.000000 -0.000000 0.000000 -0.000000 -0.000000 0.000000 -0.000000 -0.000000 0.000000 -0.000000 0.000000 14.789474 0.000000 -0.000000 0.000000 -0.000000 0.000000 9.838806 0.000953 -0.000000 0.000000 -0.000000 
-133.551666 8.741150 122.833817 -28.425330 11.887762 8.421629 -8.571306 0.002249 -0.000239 -85.925310 -7.775076 3.785505 0.000011 -44.326077 -0.000104 70.589404 -0.607742 1.532287 -0.000008 -43.324318 -0.000198 16.894026 -3.152214 13.471793 -0.000006 -7.938132 18.050655 -0.000002 0.000000 0.000001 8.571319 -0.000074 0.000009 -94.989387 -6.395312 7.319306 0.000002 -44.326103 -0.000114 83.379814 1.720989 -2.419710 -0.000004 -43.324322 -0.000185 4.303764 0.641620 -14.855788 -0.000011 -7.938128 18.050697 0.000000 -0.000001 -0.000001 -0.000010 10.422829 -1.158090 14.985483 -2.038411 0.986122 0.941580 -0.970096 0.275957 -0.000013 10.579553 -0.000439 6.647945 -0.970430 0.274896 0.000008 10.567749 -0.000430 10.708294 -0.707567 0.268203 3.218373 8.290509 0.000000 0.698780 1.577597 -11.730180 -36.359515 -44.518627 -64.911973 33.425307 -119.177211 31.913038 2.897203 7.104300 41.183541 -3.218397 8.290515 -0.000004 -2.264156 -3.906887 9.155046 -54.131322 28.384776 73.575945 33.841443 102.380943 -22.288041 12.128510 12.894107 -46.920336 -0.000013 14.789480 0.000001 6.430513 -1.371932 -0.334607 -0.000010 9.838799 0.000937 -23.402684 -2.300410 -1.255524 
-136.156219 7.063667 125.385330 -29.481333 12.023446 8.840052 -8.571333 0.002248 -0.000251 -86.660095 -7.880391 3.785175 -0.000007 -44.326069 -0.000099 71.512176 -0.560686 1.476008 -0.000001 -43.324326 -0.000189 17.140479 -3.210922 13.749706 0.000015 -7.938138 18.050669 -0.000000 -0.000002 0.000000 8.571298 -0.000075 0.000003 -95.911190 -6.408330 7.381574 -0.000012 -44.326080 -0.000094 84.651117 1.353875 -2.436782 -0.000017 -43.324310 -0.000194 4.286375 0.888577 -15.140460 -0.000007 -7.938117 18.050678 0.000001 -0.000001 -0.000000 -0.000015 10.422838 -1.158092 15.398240 -2.095701 0.960507 1.011000 -0.994246 0.257392 0.000010 10.579558 -0.000451 6.831431 -0.994272 0.257287 0.000012 10.567747 -0.000450 10.960150 -0.726338 0.257002 3.218367 8.290511 -0.000008 0.779543 1.581457 -11.847529 -37.779911 -44.721258 -66.899633 32.571758 -121.051497 31.030950 2.798405 7.346706 42.208769 -3.218381 8.290521 -0.000006 -2.219624 -3.968643 9.225028 -55.365619 28.069117 75.130728 30.963068 104.003120 -19.320527 12.467924 13.044374 -47.897402 -0.000015 14.789483 0.000002 6.575023 -1.400731 -0.375912 -0.000020 9.838808 0.000952 -23.838844 -2.324618 -1.354650 
-136.112656 7.161850 125.442200 -29.911485 11.962912 9.004918 -8.571306 0.002242 -0.000253 -85.919647 -7.835007 3.839652 -0.000002 -44.326092 -0.000105 71.176896 -0.524048 1.395825 -0.000006 -43.324333 -0.000191 17.079460 -3.235707 13.759734 -0.000005 -7.938134 18.050690 0.000001 -0.000001 0.000001 8.571321 -0.000095 0.000011 -95.172805 -6.248587 7.433318 0.000013 -44.326088 -0.000100 84.375997 1.062956 -2.384379 -0.000001 -43.324337 -0.000174 4.204772 1.086676 -15.129979 0.000011 -7.938129 18.050665 0.000002 0.000000 -0.000001 -0.000007 10.422819 -1.158102 15.510661 -2.107418 0.913094 1.061123 -0.995846 0.235158 0.000011 10.579556 -0.000446 6.881553 -0.995871 0.235055 0.000012 10.567746 -0.000445 10.997785 -0.729008 0.240414 3.218380 8.290519 0.000002 0.818715 1.557421 -11.731947 -37.790959 -44.583080 -67.026006 33.323684 -121.187281 31.767760 2.705569 7.408727 42.419628 -3.218385 8.290499 -0.000002 -2.159780 -3.940387 9.123372 -55.344808 27.979385 75.111515 31.133464 104.002259 -19.556228 12.474570 13.062062 -47.919115 0.000000 14.789466 -0.000008 6.577192 -1.397116 -0.410966 -0.000030 9.838796 0.000956 -23.834994 -2.301128 -1.415604 
-136.109711 7.268196 125.431198 -30.288542 11.885203 9.125864 -8.571303 0.002256 -0.000262 -85.322409 -7.813415 3.902119 0.000010 -44.326073 -0.000108 70.950400 -0.490689 1.326136 0.000019 -43.324329 -0.000169 17.082003 -3.236995 13.784688 -0.000015 -7.938128 18.050709 -0.000000 0.000000 -0.000001 8.571336 -0.000074 -0.000000 -94.457193 -6.121461 7.474386 0.000004 -44.326099 -0.000106 84.048497 0.883547 -2.310041 -0.000017 -43.324337 -0.000192 4.162345 1.208309 -15.123261 0.000016 -7.938121 18.050684 -0.000003 0.000000 0.000000 0.000022 10.422831 -1.158096 15.626095 -2.105431 0.870203 1.112616 -0.991768 0.215963 -0.000005 10.579553 -0.000443 6.933047 -0.991789 0.215863 0.000011 10.567751 -0.000455 11.036440 -0.727234 0.225725 3.218368 8.290513 -0.000001 0.813179 1.534654 -11.615805 -37.815004 -44.410122 -67.130227 34.090239 -121.330251 32.499652 2.623039 7.426264 42.631240 -3.218397 8.290532 0.000001 -2.141100 -3.895205 9.036547 -55.329675 27.896381 75.093900 31.321407 103.988052 -19.795871 12.480487 13.087486 -47.937106 0.000001 14.789467 0.000005 6.553686 -1.385585 -0.445073 -0.000002 9.838801 0.000941 -23.878606 -2.263626 -1.471429 
-136.134186 7.369019 125.376221 -30.592752 11.804080 9.205458 -8.571300 0.002248 -0.000257 -84.880448 -7.809334 3.963571 -0.000005 -44.326080 -0.000105 70.819206 -0.463033 1.271116 0.000001 -43.324314 -0.000197 17.125400 -3.223372 13.816956 0.000007 -7.938144 18.050665 0.000003 0.000000 -0.000000 8.571340 -0.000084 0.000002 -93.829136 -6.028622 7.504080 -0.000004 -44.326096 -0.000108 83.719944 0.798767 -2.228798 -0.000002 -43.324322 -0.000172 4.150020 1.264822 -15.119582 0.000006 -7.938131 18.050697 -0.000002 -0.000002 0.000001 0.000026 10.422834 -1.158107 15.731700 -2.094447 0.834373 1.159742 -0.984270 0.200618 0.000009 10.579553 -0.000461 6.980174 -0.984290 0.200517 0.000016 10.567751 -0.000448 11.071814 -0.722651 0.213696 3.218389 8.290510 0.000004 0.779137 1.515938 -11.510309 -37.844429 -44.231188 -67.210701 34.774320 -121.462688 33.140938 2.557617 7.411356 42.817995 -3.218379 8.290516 0.000006 -2.151721 -3.843550 8.968108 -55.317463 27.826609 75.079215 31.497851 103.966933 -20.008607 12.485269 13.115412 -47.948997 0.000001 14.789479 0.000007 6.515542 -1.369593 -0.475215 -0.000027 9.838827 0.000939 -23.949234 -2.219870 -1.518202 
-136.158264 7.463577 125.322418 -30.880160 11.726111 9.279322 -8.571318 0.002255 -0.000251 -84.468403 -7.804723 4.019495 0.000008 -44.326069 -0.000107 70.700722 -0.437200 1.223047 0.000007 -43.324318 -0.000199 17.163379 -3.214133 13.847242 -0.000021 -7.938132 18.050680 -0.000003 0.000002 0.000001 8.571316 -0.000079 0.000016 -93.238707 -5.942222 7.528757 0.000009 -44.326084 -0.000094 83.411472 0.735878 -2.152680 -0.000021 -43.324329 -0.000182 4.138937 1.304832 -15.114531 0.000003 -7.938119 18.050657 -0.000001 0.000000 0.000000 -0.000008 10.422835 -1.158089 15.830563 -2.083100 0.799357 1.203875 -0.976655 0.185697 0.000018 10.579554 -0.000443 7.024304 -0.976673 0.185596 0.000011 10.567753 -0.000435 11.104934 -0.717948 0.201981 3.218369 8.290512 -0.000004 0.748420 1.503161 -11.407016 -37.869082 -44.059310 -67.294514 35.348418 -121.582162 33.680629 2.505834 7.390119 42.975202 -3.218397 8.290505 0.000001 -2.163618 -3.795048 8.902814 -55.293981 27.763073 75.065773 31.640247 103.949189 -20.178185 12.489442 13.141701 -47.950810 -0.000022 14.789474 -0.000002 6.478799 -1.352206 -0.504236 -0.000025 9.838809 0.000953 -24.017194 -2.174147 -1.562241 
-136.174194 7.554642 125.282387 -31.177464 11.649980 9.360465 -8.571303 0.002251 -0.000255 -84.035437 -7.793503 4.071151 -0.000030 -44.326084 -0.000107 70.566981 -0.409090 1.178397 -0.000003 -43.324341 -0.000182 17.178670 -3.218895 13.873368 -0.000007 -7.938138 18.050678 -0.000000 0.000000 0.000001 8.571314 -0.000082 0.000006 -92.652950 -5.851122 7.548372 -0.000023 -44.326088 -0.000099 83.122104 0.676455 -2.080751 -0.000007 -43.324329 -0.000178 4.117859 1.339388 -15.105228 0.000010 -7.938146 18.050688 -0.000000 0.000000 0.000000 0.000009 10.422827 -1.158089 15.927028 -2.073531 0.761773 1.246940 -0.969597 0.169528 -0.000015 10.579564 -0.000429 7.067369 -0.969616 0.169428 0.000013 10.567754 -0.000449 11.137256 -0.713739 0.189374 3.218362 8.290506 0.000003 0.731262 1.497709 -11.298854 -37.887636 -43.891854 -67.397260 35.817693 -121.694655 34.128826 2.468266 7.371680 43.093788 -3.218387 8.290508 0.000006 -2.169594 -3.750043 8.834743 -55.249690 27.701482 75.051819 31.725573 103.937632 -20.282030 12.495035 13.166596 -47.939394 -0.000003 14.789479 0.000014 6.446299 -1.333521 -0.533397 0.000005 9.838801 0.000956 -24.077219 -2.126074 -1.605799 
